<?xml version="1.0" encoding="utf-8"?>
<!-- Generator: Adobe Illustrator 19.1.0, SVG Export Plug-In . SVG Version: 6.00 Build 0)  -->
<svg version="1.1" id="Layer_1" xmlns="http://www.w3.org/2000/svg" xmlns:xlink="http://www.w3.org/1999/xlink" x="0px" y="0px"
	 viewBox="0 0 60 60" style="enable-background:new 0 0 60 60;" xml:space="preserve">
<style type="text/css">
	.st0{fill:#00FF00;}
	.st1{fill:none;stroke:#009245;stroke-width:4;stroke-miterlimit:10;}
	.st2{fill:#FFFFFF;}
</style>
<g>
	<circle class="st0" cx="29.6" cy="30.1" r="25"/>
	<circle class="st1" cx="30.2" cy="30.2" r="25"/>
	<path class="st2" d="M-3.5,31.6"/>
	<path class="st2" d="M29.3,0.9c-1.2,0.4-2.9-0.3-4.1-0.4c-1.8-0.3-3.6-0.3-5.4-0.2c-1.9,0.1-4.6,0.9-6.3-0.3c-0.1,0-0.3,0-0.4,0.1
		c-0.1,0-0.2,0.1-0.3,0.1c-3.9,3-7.6,6.3-11.5,9.3c-0.1,1.1-0.4,2-0.9,3.1c0,0.3,0,0.6,0,0.9c0.2,0.1,0.3,0.2,0.3,0.4
		c0,0.7-0.1,1.4-0.2,2.1c0.1,2.2,0.3,4.4,0.4,6.6c0.5,0.4,1,0.9,0.7,1.7c-0.2,0.6-0.7,1.1-1.3,1.2c-0.1,0.5-0.1,1-0.2,1.5
		c0,0.1-0.1,0.3-0.2,0.3C0,27.7,0,28,0,28.2c0.2,0.1,0.3,0.2,0.3,0.4c0,0.9,0,1.8,0,2.7c0,0.3-0.2,0.4-0.4,0.5c0,0.1,0,0.1,0,0.2h30
		V0.5C29.8,0.7,29.6,0.8,29.3,0.9z"/>
	<path class="st2" d="M8.3,1.2C8.1,1.1,8.1,0.9,8,0.8c-0.3,0-0.5,0-0.8,0.1C5.7,1.1,3.8,1.6,2.5,0.6C1.9,0.7,1.3,0.9,0.7,1
		C0.5,1.1,0.2,0.9,0.1,0.7C0.1,1.1,0,1.6,0,2.1C0,2.7,0.1,3.4,0.2,4c0.3,1.2,0.8,2.3,1,3.5c0,0.2,0.1,0.5,0.1,0.7
		C4.2,6,7,3.6,9.8,1.3C9.3,1.5,8.7,1.6,8.3,1.2z"/>
</g>
</svg>
